<svg xmlns="http://www.w3.org/2000/svg" viewBox="0 0 200 160" fill="none" stroke="currentColor" stroke-width="1.25" stroke-linecap="round" stroke-linejoin="round" aria-hidden="true">
  <path d="M70 50 Q50 50 50 70 Q40 75 45 90 Q40 105 55 115 Q60 130 80 128 Q90 138 100 130 Q110 138 120 128 Q140 130 145 115 Q160 105 155 90 Q160 75 150 70 Q150 50 130 50 Q100 35 70 50 Z" opacity="0.8"/>
  <path d="M100 60 V128" stroke-opacity="0.4" stroke-dasharray="2 3"/>
  <g fill="currentColor">
    <circle cx="75" cy="78" r="2.5"/>
    <circle cx="125" cy="78" r="2.5"/>
    <circle cx="65" cy="100" r="2"/>
    <circle cx="135" cy="100" r="2"/>
    <circle cx="85" cy="115" r="2"/>
    <circle cx="115" cy="115" r="2"/>
  </g>
  <g stroke-opacity="0.35">
    <line x1="75" y1="78" x2="65" y2="100"/>
    <line x1="125" y1="78" x2="135" y2="100"/>
    <line x1="65" y1="100" x2="85" y2="115"/>
    <line x1="135" y1="100" x2="115" y2="115"/>
  </g>
</svg>
