<svg width="32" height="32" viewBox="0 0 32 32" fill="none" xmlns="http://www.w3.org/2000/svg">
  <defs>
    <linearGradient id="qdrantCore" x1="8" y1="5" x2="24" y2="27" gradientUnits="userSpaceOnUse">
      <stop stop-color="#38BDF8"/>
      <stop offset=".52" stop-color="#8B5CF6"/>
      <stop offset="1" stop-color="#4F35CC"/>
    </linearGradient>
    <filter id="qdrantGlow" x="1" y="1" width="30" height="30" filterUnits="userSpaceOnUse" color-interpolation-filters="sRGB">
      <feDropShadow dx="0" dy="2" stdDeviation="2.4" flood-color="#7C3AED" flood-opacity=".45"/>
    </filter>
  </defs>
  <rect x="3.5" y="3.5" width="25" height="25" rx="8" fill="#111028"/>
  <path d="M16 7.5L23.35 11.75V20.25L16 24.5L8.65 20.25V11.75L16 7.5Z" fill="url(#qdrantCore)" opacity=".22"/>
  <path d="M16 7.5L23.35 11.75V20.25L16 24.5L8.65 20.25V11.75L16 7.5Z" stroke="url(#qdrantCore)" stroke-width="1.45" filter="url(#qdrantGlow)"/>
  <path d="M16 16L16 7.5M16 16L23.35 11.75M16 16L23.35 20.25M16 16L16 24.5M16 16L8.65 20.25M16 16L8.65 11.75" stroke="#D7E8FF" stroke-width="1.15" stroke-linecap="round" opacity=".72"/>
  <circle cx="16" cy="16" r="2.7" fill="#F8FAFC"/>
  <circle cx="16" cy="7.5" r="1.8" fill="#38BDF8"/>
  <circle cx="23.35" cy="11.75" r="1.8" fill="#A78BFA"/>
  <circle cx="23.35" cy="20.25" r="1.8" fill="#8B5CF6"/>
  <circle cx="16" cy="24.5" r="1.8" fill="#6366F1"/>
  <circle cx="8.65" cy="20.25" r="1.8" fill="#60A5FA"/>
  <circle cx="8.65" cy="11.75" r="1.8" fill="#22D3EE"/>
</svg>
