<svg width="32" height="32" viewBox="0 0 32 32" fill="none" xmlns="http://www.w3.org/2000/svg">
  <defs>
    <linearGradient id="redisTop" x1="7" y1="4" x2="25" y2="16" gradientUnits="userSpaceOnUse">
      <stop stop-color="#FF6B6B"/>
      <stop offset="1" stop-color="#C1121F"/>
    </linearGradient>
    <linearGradient id="redisMid" x1="7" y1="11" x2="25" y2="23" gradientUnits="userSpaceOnUse">
      <stop stop-color="#F43F5E"/>
      <stop offset="1" stop-color="#8F0E18"/>
    </linearGradient>
    <filter id="redisGlow" x="2" y="0" width="28" height="32" filterUnits="userSpaceOnUse" color-interpolation-filters="sRGB">
      <feDropShadow dx="0" dy="2" stdDeviation="2.2" flood-color="#EF4444" flood-opacity=".38"/>
    </filter>
  </defs>
  <rect x="3.5" y="3.5" width="25" height="25" rx="8" fill="#26090D"/>
  <path d="M7 9.5L16 5.35L25 9.5L16 13.65L7 9.5Z" fill="url(#redisTop)" filter="url(#redisGlow)"/>
  <path d="M7 15.6L16 11.45L25 15.6L16 19.75L7 15.6Z" fill="url(#redisMid)" opacity=".92"/>
  <path d="M7 21.7L16 17.55L25 21.7L16 25.85L7 21.7Z" fill="#FFB4B4" opacity=".9"/>
  <path d="M10.8 9.5L16 7.15L21.2 9.5L16 11.85L10.8 9.5Z" fill="#FFE2E2" opacity=".82"/>
  <path d="M10.8 15.6L16 13.25L21.2 15.6L16 17.95L10.8 15.6Z" fill="#FFCDD2" opacity=".58"/>
  <path d="M10.8 21.7L16 19.35L21.2 21.7L16 24.05L10.8 21.7Z" fill="#7F1D1D" opacity=".28"/>
  <path d="M7 9.5L16 13.65L25 9.5" stroke="#FFF1F2" stroke-width="1.15" stroke-linejoin="round" opacity=".65"/>
</svg>
